<?xml version="1.0" encoding="UTF-8"?>
<svg version="1.1" xmlns="http://www.w3.org/2000/svg" width="107" height="128">
<path d="M0 0 C2 3 2 3 2 5 C2.66 5.33 3.32 5.66 4 6 C4.7109375 8.1171875 4.7109375 8.1171875 5.375 10.875 C6.65517596 15.89119967 8.27341045 20.66350776 10.1328125 25.4921875 C11.01029251 28.02976484 11.70895214 30.32765144 12 33 C11.34 33.99 10.68 34.98 10 36 C9.01 36 8.02 36 7 36 C4.24614784 31.11817117 3.02862785 26.44567686 2 21 C1.01 21 0.02 21 -1 21 C-2.65 25.95 -4.3 30.9 -6 36 C-3.49929222 37.25035389 -1.84408595 37.10714558 0.95288086 37.08178711 C1.98412582 37.0752562 3.01537079 37.06872528 4.0778656 37.06199646 C5.19556839 37.05056107 6.31327118 37.03912567 7.46484375 37.02734375 C9.81445166 37.01469827 12.16406111 37.00233726 14.51367188 36.99023438 C18.23141235 36.96538547 21.94907368 36.9373962 25.66674805 36.90405273 C29.24528524 36.87392518 32.8237205 36.85609799 36.40234375 36.83984375 C37.51802231 36.82638412 38.63370087 36.8129245 39.78318787 36.79905701 C40.81758499 36.79567825 41.85198212 36.7922995 42.91772461 36.78881836 C43.82880478 36.78136093 44.73988495 36.7739035 45.67857361 36.76622009 C48 37 48 37 51 39 C45.8559782 43.62414725 40.59405283 47.93432232 35 52 C33.7315625 52.92619141 33.7315625 52.92619141 32.4375 53.87109375 C29.6280641 55.91831053 26.81418935 57.95932402 24 60 C22.31239223 61.2290187 20.62489356 62.45818721 18.9375 63.6875 C13.18602321 67.87114237 7.42074018 72.03564546 1.65014648 76.19287109 C-1.75689493 78.6488838 -5.15949615 81.10896988 -8.53125 83.61328125 C-9.5109375 84.33902344 -10.490625 85.06476563 -11.5 85.8125 C-12.75296875 86.75029297 -12.75296875 86.75029297 -14.03125 87.70703125 C-16 89 -16 89 -18 89 C-18 89.66 -18 90.32 -18 91 C-23.41176471 95 -23.41176471 95 -26 95 C-26 95.66 -26 96.32 -26 97 C-28.475 97.99 -28.475 97.99 -31 99 C-31.99 97.35 -32.98 95.7 -34 94 C-27.99260353 89.57586129 -21.97372531 85.23593178 -15.6796875 81.2265625 C-13.85404956 80.0902659 -13.85404956 80.0902659 -13 78 C-8.5 75 -8.5 75 -6 75 C-6 74.34 -6 73.68 -6 73 C-5.01 72.67 -4.02 72.34 -3 72 C-1.98717195 71.01299476 -0.98921603 70.01066891 0 69 C1.62588684 67.80569247 3.27369698 66.6408935 4.9375 65.5 C7.40163571 63.80520983 9.83791656 62.12712427 12.19140625 60.28125 C14 59 14 59 16 59 C16 58.34 16 57.68 16 57 C16.99 56.67 17.98 56.34 19 56 C19.495 55.01 19.495 55.01 20 54 C21.66666667 53 23.33333333 52 25 51 C25.495 50.01 25.495 50.01 26 49 C28.31 47.68 30.62 46.36 33 45 C10.23 45 -12.54 45 -36 45 C-25.52141131 53.5265573 -25.52141131 53.5265573 -15 62 C-15.375 63.9375 -15.375 63.9375 -16 66 C-16.99 66.495 -16.99 66.495 -18 67 C-22.99234359 63.37810367 -27.75015317 59.56523942 -32.4375 55.5625 C-38.42762275 50.44912835 -44.43932114 45.37378591 -51 41 C-51 40.01 -51 39.02 -51 38 C-36.81 38 -22.62 38 -8 38 C-8 37.34 -8 36.68 -8 36 C-8.99 35.67 -9.98 35.34 -11 35 C-10.54937124 29.95295788 -9.70949807 25.75016914 -7.81640625 21.05859375 C-6.97463569 18.9360431 -6.26151852 16.79845102 -5.5625 14.625 C-3.93301203 9.65852867 -1.9874437 4.83241388 0 0 Z " fill="#080EB6" transform="translate(54,8)"/>
<path d="M0 0 C29.37 0 58.74 0 89 0 C89.495 1.98 89.495 1.98 90 4 C83.16342376 9.57603615 76.16475457 14.85477257 69 20 C67.31171237 21.22808462 65.62422686 22.45727261 63.9375 23.6875 C58.18602321 27.87114237 52.42074018 32.03564546 46.65014648 36.19287109 C43.24310507 38.6488838 39.84050385 41.10896988 36.46875 43.61328125 C35.4890625 44.33902344 34.509375 45.06476563 33.5 45.8125 C32.6646875 46.43769531 31.829375 47.06289062 30.96875 47.70703125 C29 49 29 49 27 49 C27 49.66 27 50.32 27 51 C21.58823529 55 21.58823529 55 19 55 C19 55.66 19 56.32 19 57 C17.35 57.66 15.7 58.32 14 59 C13.01 57.35 12.02 55.7 11 54 C17.00739647 49.57586129 23.02627469 45.23593178 29.3203125 41.2265625 C31.14595044 40.0902659 31.14595044 40.0902659 32 38 C36.5 35 36.5 35 39 35 C39 34.34 39 33.68 39 33 C39.99 32.67 40.98 32.34 42 32 C43.01282805 31.01299476 44.01078397 30.01066891 45 29 C46.62588684 27.80569247 48.27369698 26.6408935 49.9375 25.5 C52.40163571 23.80520983 54.83791656 22.12712427 57.19140625 20.28125 C59 19 59 19 61 19 C61 18.34 61 17.68 61 17 C61.99 16.67 62.98 16.34 64 16 C64.33 15.34 64.66 14.68 65 14 C66.66666667 13 68.33333333 12 70 11 C70.33 10.34 70.66 9.68 71 9 C72.59375 7.96484375 72.59375 7.96484375 74.5 6.9375 C76.9117304 5.6858579 76.9117304 5.6858579 79 4 C75.03440238 3.06031484 71.35268903 2.8788085 67.28198242 2.88647461 C66.62776306 2.88632858 65.9735437 2.88618256 65.29949951 2.8860321 C63.15145474 2.88672506 61.00349825 2.89448836 58.85546875 2.90234375 C57.36045886 2.90421012 55.86544835 2.90563299 54.37043762 2.90663147 C50.44628189 2.91043936 46.5221635 2.92025482 42.59802246 2.93133545 C38.58944199 2.94158679 34.58085545 2.94613706 30.57226562 2.95117188 C22.71482666 2.9618787 14.85741798 2.97893428 7 3 C7 4.32 7 5.64 7 7 C6.01 7 5.02 7 4 7 C4 6.34 4 5.68 4 5 C3.01 4.67 2.02 4.34 1 4 C0.67 2.68 0.34 1.36 0 0 Z " fill="#070BB9" transform="translate(9,48)"/>
<path d="M0 0 C1.8125 0.5625 1.8125 0.5625 4 2 C6.21022338 6.33203783 7.62082312 10.84027571 9.10546875 15.4609375 C10.52742 19.49704368 12.27868129 23.3899445 14.01171875 27.30078125 C15 30 15 30 15 34 C11.51329166 32.8905928 8.22515763 31.73662334 5 30 C5 29.34 5 28.68 5 28 C4.43023437 27.71769531 3.86046875 27.43539062 3.2734375 27.14453125 C-3.03609282 23.96808386 -8.72586011 20.73320247 -14 16 C-13.34 14.68 -12.68 13.36 -12 12 C-7.05353568 12.43645273 -4.69117706 14.85857272 -1 18 C1.10527877 18.67426727 1.10527877 18.67426727 3 19 C2.13178578 14.49550034 1.24990826 10.2759207 -0.75 6.125 C-1.1625 5.09375 -1.575 4.0625 -2 3 C-1.34 2.01 -0.68 1.02 0 0 Z " fill="#0811BC" transform="translate(71,73)"/>
<path d="M0 0 C29.37 0 58.74 0 89 0 C89.495 1.98 89.495 1.98 90 4 C88 6 88 6 84.875 6.125 C83.92625 6.08375 82.9775 6.0425 82 6 C81.505 5.01 81.505 5.01 81 4 C76.33404878 3.07841632 71.80039153 2.87750399 67.05493164 2.88647461 C66.40042023 2.88632858 65.74590881 2.88618256 65.07156372 2.8860321 C62.93439273 2.88672199 60.79731178 2.89447054 58.66015625 2.90234375 C57.16800484 2.90421122 55.67585281 2.90563357 54.18370056 2.90663147 C50.27601396 2.91043075 46.36836514 2.92023865 42.46069336 2.93133545 C38.46533723 2.9416055 34.46997493 2.94614103 30.47460938 2.95117188 C22.64972245 2.96186348 14.82486654 2.97890846 7 3 C7 4.32 7 5.64 7 7 C6.01 7 5.02 7 4 7 C4 6.34 4 5.68 4 5 C3.01 4.67 2.02 4.34 1 4 C0.67 2.68 0.34 1.36 0 0 Z " fill="#0406D1" transform="translate(9,48)"/>
<path d="M0 0 C4.94246987 0.43610028 7.34433095 2.81101211 11 6 C14.16517657 7.954962 15.05266176 8 19 8 C19.33 8.99 19.66 9.98 20 11 C20.66 11.33 21.32 11.66 22 12 C22.72693904 13.97888961 23.39816251 15.97954558 24 18 C21.66666667 18 19.33333333 18 17 18 C17 17.34 17 16.68 17 16 C16.43023437 15.71769531 15.86046875 15.43539062 15.2734375 15.14453125 C8.96390718 11.96808386 3.27413989 8.73320247 -2 4 C-1.34 2.68 -0.68 1.36 0 0 Z " fill="#0A0EBA" transform="translate(59,85)"/>
<path d="M0 0 C0.99 0.99 1.98 1.98 3 3 C3.66 2.67 4.32 2.34 5 2 C5 3.32 5 4.64 5 6 C7.50070778 7.25035389 9.15591405 7.10714558 11.95288086 7.08178711 C13.49974831 7.07199074 13.49974831 7.07199074 15.0778656 7.06199646 C16.19556839 7.05056107 17.31327118 7.03912567 18.46484375 7.02734375 C20.81445166 7.01469827 23.16406111 7.00233726 25.51367188 6.99023438 C29.23141235 6.96538547 32.94907368 6.9373962 36.66674805 6.90405273 C40.24528524 6.87392518 43.8237205 6.85609799 47.40234375 6.83984375 C48.51802231 6.82638412 49.63370087 6.8129245 50.78318787 6.79905701 C51.81758499 6.79567825 52.85198212 6.7922995 53.91772461 6.78881836 C54.82880478 6.78136093 55.73988495 6.7739035 56.67857361 6.76622009 C59 7 59 7 62 9 C60.68 10.32 59.36 11.64 58 13 C57.01 12.505 57.01 12.505 56 12 C56.33 11.01 56.66 10.02 57 9 C25.64915394 8.87527989 -5.66224103 9.05067698 -37 10 C-37.33 10.66 -37.66 11.32 -38 12 C-38.66 11.67 -39.32 11.34 -40 11 C-40 10.01 -40 9.02 -40 8 C-25.81 8 -11.62 8 3 8 C3 7.34 3 6.68 3 6 C2.01 5.67 1.02 5.34 0 5 C0 3.35 0 1.7 0 0 Z " fill="#0A1383" transform="translate(43,38)"/>
<path d="M0 0 C0.64560379 -0.00175232 1.29120758 -0.00350464 1.95637512 -0.00531006 C4.10212858 -0.00973006 6.24780031 -0.00678872 8.39355469 -0.00341797 C9.88230404 -0.0040913 11.37105328 -0.00506156 12.85980225 -0.00631714 C15.98711184 -0.00779458 19.11439293 -0.00563931 22.24169922 -0.00097656 C26.24430251 0.00470103 30.24683846 0.00145457 34.24943924 -0.00454903 C37.32756045 -0.00817028 40.40566583 -0.00700852 43.48378754 -0.00442123 C44.95893105 -0.00375527 46.43407601 -0.00456884 47.90921783 -0.00690079 C49.97727738 -0.00945076 52.04522965 -0.00555289 54.11328125 0 C55.87747406 0.00119339 55.87747406 0.00119339 57.67730713 0.00241089 C60.51273606 0.11714608 63.05978418 0.47804324 65.81542969 1.12939453 C65.81542969 1.45939453 65.81542969 1.78939453 65.81542969 2.12939453 C31.16542969 2.62439453 31.16542969 2.62439453 -4.18457031 3.12939453 C-3.85457031 3.78939453 -3.52457031 4.44939453 -3.18457031 5.12939453 C-4.17457031 5.12939453 -5.16457031 5.12939453 -6.18457031 5.12939453 C-6.74707031 3.19189453 -6.74707031 3.19189453 -7.18457031 1.12939453 C-5.35552247 -0.69965331 -2.45416927 0.00166463 0 0 Z " fill="#0710A1" transform="translate(22.1845703125,49.87060546875)"/>
<path d="M0 0 C0.33 0.99 0.66 1.98 1 3 C3.01508358 3.73323796 3.01508358 3.73323796 5 4 C1.64353655 6.85299393 -1.75640351 9.62855087 -5.25 12.3125 C-5.91515625 12.82425781 -6.5803125 13.33601563 -7.265625 13.86328125 C-9 15 -9 15 -11 15 C-11 14.34 -11 13.68 -11 13 C-11.763125 13.33 -12.52625 13.66 -13.3125 14 C-16 15 -16 15 -19 15 C-19 15.66 -19 16.32 -19 17 C-20.65 17.66 -22.3 18.32 -24 19 C-23.01 17.515 -23.01 17.515 -22 16 C-21.34 16 -20.68 16 -20 16 C-20 15.34 -20 14.68 -20 14 C-19.01 13.67 -18.02 13.34 -17 13 C-16.67 12.34 -16.34 11.68 -16 11 C-14.33333333 10 -12.66666667 9 -11 8 C-10.67 7.34 -10.34 6.68 -10 6 C-8.53117053 5.09328027 -7.02514118 4.24592135 -5.5 3.4375 C-2.55848713 1.98363365 -2.55848713 1.98363365 0 0 Z " fill="#0D0AC3" transform="translate(90,51)"/>
<path d="M0 0 C0.66 0.33 1.32 0.66 2 1 C-2.75 5 -2.75 5 -5 5 C-5.33 6.32 -5.66 7.64 -6 9 C-4.35 8.67 -2.7 8.34 -1 8 C-4.67557852 12.00972202 -8.18966896 14.45335415 -13 17 C-13 16.34 -13 15.68 -13 15 C-12.34 15 -11.68 15 -11 15 C-11 14.01 -11 13.02 -11 12 C-12.32 12.33 -13.64 12.66 -15 13 C-13.625 11 -13.625 11 -12 9 C-11.34 9 -10.68 9 -10 9 C-10 8.34 -10 7.68 -10 7 C-9.01 6.67 -8.02 6.34 -7 6 C-5.97803008 5.02246356 -4.98020375 4.0194119 -4 3 C-2.68036291 1.98199424 -1.34990354 0.97751635 0 0 Z " fill="#0F12A9" transform="translate(58,74)"/>
<path d="M0 0 C1.875 0.625 1.875 0.625 4 2 C5.57312411 5.61818544 6 8.02093353 6 12 C6.66 12 7.32 12 8 12 C7.835 11.484375 7.67 10.96875 7.5 10.4375 C6.84951 7.26636124 6.9379266 4.22781666 7 1 C8.44025961 3.77944837 9.6816183 6.55691078 10.75 9.5 C11.03359375 10.2528125 11.3171875 11.005625 11.609375 11.78125 C12.09353244 14.53126428 11.45710076 15.67708575 10 18 C9.01 18 8.02 18 7 18 C4.549832 13.65652037 3.38136212 9.71117318 2.52734375 4.85546875 C2.26630859 3.93701172 2.26630859 3.93701172 2 3 C1.34 2.67 0.68 2.34 0 2 C0 1.34 0 0.68 0 0 Z " fill="#0C11A5" transform="translate(54,26)"/>
<path d="M0 0 C1.8125 0.5625 1.8125 0.5625 4 2 C5.99762711 5.92126804 7.34078436 9.64917679 8 14 C5.27573689 11.64722731 4.1858237 9.37503669 3 6 C3 8.24374952 3.24522119 10.39568543 3.5 12.625 C3.5928125 13.44226563 3.685625 14.25953125 3.78125 15.1015625 C3.8534375 15.72804688 3.925625 16.35453125 4 17 C3.34 16.67 2.68 16.34 2 16 C1.27359045 13.68456957 0.61568542 11.34730065 0 9 C-0.4125 7.9275 -0.825 6.855 -1.25 5.75 C-1.4975 4.8425 -1.745 3.935 -2 3 C-1.34 2.01 -0.68 1.02 0 0 Z " fill="#131AA2" transform="translate(71,73)"/>
<path d="M0 0 C0.33 0.99 0.66 1.98 1 3 C1.66 3.33 2.32 3.66 3 4 C3.72693904 5.97888961 4.39816251 7.97954558 5 10 C2.66666667 10 0.33333333 10 -2 10 C-2.66 8.02 -3.32 6.04 -4 4 C-4.99 4 -5.98 4 -7 4 C-7 3.01 -7 2.02 -7 1 C-4.53721199 -0.231394 -2.7204945 -0.07159196 0 0 Z " fill="#0507BD" transform="translate(78,93)"/>
<path d="M0 0 C1.98 0 3.96 0 6 0 C6 0.99 6 1.98 6 3 C5.34 3 4.68 3 4 3 C4 3.66 4 4.32 4 5 C2.68 5 1.36 5 0 5 C-0.33 5.99 -0.66 6.98 -1 8 C-5.33333333 11 -5.33333333 11 -8 11 C-7.73911731 7.47808373 -6.75685408 6.78724732 -4 4.375 C-3.01 3.59125 -2.02 2.8075 -1 2 C-0.67 1.34 -0.34 0.68 0 0 Z " fill="#060BCB" transform="translate(41,86)"/>
<path d="M0 0 C-1.32 1.65 -2.64 3.3 -4 5 C-4.66 4.67 -5.32 4.34 -6 4 C-5.67 3.01 -5.34 2.02 -5 1 C-15.89 1 -26.78 1 -38 1 C-38 0.67 -38 0.34 -38 0 C-34.03506717 -0.16944814 -30.06987381 -0.32978229 -26.10424805 -0.48217773 C-24.10251279 -0.5609259 -22.10105398 -0.6466034 -20.09960938 -0.73242188 C-13.2630776 -0.99072912 -6.77197496 -1.00353087 0 0 Z " fill="#10168C" transform="translate(105,46)"/>
<path d="M0 0 C0.99 0.33 1.98 0.66 3 1 C4.05047644 3.31104818 5.05007438 5.64583651 6 8 C6.66 8.66 7.32 9.32 8 10 C9.50624602 12.37828319 10.09446936 13.43318383 9.625 16.25 C9.41875 16.8275 9.2125 17.405 9 18 C7.02 14.535 7.02 14.535 5 11 C4.67 11.66 4.34 12.32 4 13 C3.34 12.67 2.68 12.34 2 12 C1.62109375 10.0390625 1.62109375 10.0390625 1.4375 7.625 C1.21246912 4.80522535 0.90445432 2.71336297 0 0 Z " fill="#10159F" transform="translate(72,78)"/>
<path d="M0 0 C4.8 2.46153846 4.8 2.46153846 5.8125 5.1875 C5.874375 5.785625 5.93625 6.38375 6 7 C5.01 7.66 4.02 8.32 3 9 C0.36 7.02 -2.28 5.04 -5 3 C-4.01 3 -3.02 3 -2 3 C-1.34 2.67 -0.68 2.34 0 2 C0 1.34 0 0.68 0 0 Z " fill="#0C10A9" transform="translate(33,66)"/>
<path d="M0 0 C0.66 0.66 1.32 1.32 2 2 C4.06874034 2.6425235 4.06874034 2.6425235 6 3 C4.625 4.5 4.625 4.5 3 6 C2.34 6 1.68 6 1 6 C1 5.34 1 4.68 1 4 C0.236875 4.33 -0.52625 4.66 -1.3125 5 C-4 6 -4 6 -7 6 C-7 6.66 -7 7.32 -7 8 C-8.65 8.66 -10.3 9.32 -12 10 C-11.34 9.01 -10.68 8.02 -10 7 C-9.34 7 -8.68 7 -8 7 C-8 6.34 -8 5.68 -8 5 C-7.01 4.67 -6.02 4.34 -5 4 C-4.67 3.34 -4.34 2.68 -4 2 C-1.9375 0.875 -1.9375 0.875 0 0 Z " fill="#0B0EA3" transform="translate(78,60)"/>
<path d="M0 0 C0.99 0.99 1.98 1.98 3 3 C3.99 2.67 4.98 2.34 6 2 C5.54738642 3.43931117 5.08767021 4.87638999 4.625 6.3125 C4.36976562 7.11300781 4.11453125 7.91351563 3.8515625 8.73828125 C3 11 3 11 1 14 C0.01 13.67 -0.98 13.34 -2 13 C-1.67 12.01 -1.34 11.02 -1 10 C-0.34 10 0.32 10 1 10 C1 8.68 1 7.36 1 6 C0.34 6 -0.32 6 -1 6 C-0.67 4.02 -0.34 2.04 0 0 Z " fill="#030CA4" transform="translate(49,21)"/>
<path d="M0 0 C2.64 0 5.28 0 8 0 C7.67 2.31 7.34 4.62 7 7 C6.01 7 5.02 7 4 7 C4 6.34 4 5.68 4 5 C3.01 4.67 2.02 4.34 1 4 C0.3125 1.9375 0.3125 1.9375 0 0 Z " fill="#0407E2" transform="translate(9,48)"/>
<path d="M0 0 C1.32 0.33 2.64 0.66 4 1 C4.144375 2.134375 4.28875 3.26875 4.4375 4.4375 C4.61171478 7.80777201 4.61171478 7.80777201 6 9 C6.04063832 10.66617115 6.042721 12.33388095 6 14 C5.67 13.34 5.34 12.68 5 12 C4.34 12 3.68 12 3 12 C2.01 8.04 1.02 4.08 0 0 Z " fill="#0509D2" transform="translate(57,26)"/>
<path d="M0 0 C-0.33 1.32 -0.66 2.64 -1 4 C-1.598125 4.12375 -2.19625 4.2475 -2.8125 4.375 C-5.26231348 4.95475985 -5.26231348 4.95475985 -8 7 C-8.99 7 -9.98 7 -11 7 C-10.67 6.01 -10.34 5.02 -10 4 C-9.34 4 -8.68 4 -8 4 C-8 3.34 -8 2.68 -8 2 C-5.09399739 0.74335022 -3.20395416 0 0 0 Z " fill="#0409CF" transform="translate(79,64)"/>
<path d="M0 0 C2 3 2 3 2 5 C2.66 5.33 3.32 5.66 4 6 C3.21625 6.061875 2.4325 6.12375 1.625 6.1875 C0.75875 6.455625 -0.1075 6.72375 -1 7 C-2.37466625 9.47636012 -2.37466625 9.47636012 -3 12 C-3.66 11.67 -4.32 11.34 -5 11 C-1.85714286 3.57142857 -1.85714286 3.57142857 0 0 Z " fill="#0C0E89" transform="translate(54,8)"/>
<path d="M0 0 C1.65 0 3.3 0 5 0 C5.33 1.32 5.66 2.64 6 4 C6.66 4 7.32 4 8 4 C8 4.99 8 5.98 8 7 C4.66272214 5.82744291 2.22562513 4.81131596 0 2 C0 1.34 0 0.68 0 0 Z " fill="#0609CD" transform="translate(17,56)"/>
<path d="M0 0 C-6.28571429 5.42857143 -6.28571429 5.42857143 -10 7 C-9.67 6.01 -9.34 5.02 -9 4 C-9.66 3.34 -10.32 2.68 -11 2 C-9.54494642 1.47007308 -8.08581873 0.9513211 -6.625 0.4375 C-5.81289062 0.14746094 -5.00078125 -0.14257812 -4.1640625 -0.44140625 C-2 -1 -2 -1 0 0 Z " fill="#060FB4" transform="translate(95,55)"/>
<path d="M0 0 C2.475 0.99 2.475 0.99 5 2 C4.67 2.99 4.34 3.98 4 5 C3.01 5 2.02 5 1 5 C0.67 5.99 0.34 6.98 0 8 C-0.99 6.68 -1.98 5.36 -3 4 C-2.01 2.68 -1.02 1.36 0 0 Z " fill="#0709DB" transform="translate(52,17)"/>
<path d="M0 0 C0.66 0.33 1.32 0.66 2 1 C1.01 1.33 0.02 1.66 -1 2 C-1.12375 2.639375 -1.2475 3.27875 -1.375 3.9375 C-1.58125 4.618125 -1.7875 5.29875 -2 6 C-4.89111788 7.52164099 -6.71823412 8 -10 8 C-6.7 5.36 -3.4 2.72 0 0 Z " fill="#0D18AA" transform="translate(35,91)"/>
<path d="M0 0 C4.75 0.875 4.75 0.875 7 2 C7 2.66 7 3.32 7 4 C7.66 4.33 8.32 4.66 9 5 C7.3125 5.8125 7.3125 5.8125 5 6 C2.25 3.625 2.25 3.625 0 1 C0 0.67 0 0.34 0 0 Z " fill="#0608CD" transform="translate(26,64)"/>
<path d="M0 0 C0.33 0.99 0.66 1.98 1 3 C1.66 3.33 2.32 3.66 3 4 C-3.75 6 -3.75 6 -6 6 C-6 5.34 -6 4.68 -6 4 C-4.03852126 2.61061923 -2.03833424 1.2739589 0 0 Z " fill="#1212BE" transform="translate(90,51)"/>
<path d="M0 0 C2 1.75 2 1.75 4 4 C4 5.32 4 6.64 4 8 C1.525 7.01 1.525 7.01 -1 6 C-1.042721 4.33388095 -1.04063832 2.66617115 -1 1 C-0.67 0.67 -0.34 0.34 0 0 Z " fill="#0F14E1" transform="translate(77,93)"/>
<path d="M0 0 C0.5775 0.165 1.155 0.33 1.75 0.5 C4.26664369 1.14462031 4.26664369 1.14462031 8 1 C8 2.32 8 3.64 8 5 C2.25 3.375 2.25 3.375 0 0 Z " fill="#1D1E84" transform="translate(78,102)"/>
<path d="M0 0 C3 1 3 1 3.94921875 2.84765625 C4.19285156 3.57855469 4.43648438 4.30945313 4.6875 5.0625 C4.93886719 5.79597656 5.19023438 6.52945313 5.44921875 7.28515625 C5.63097656 7.85105469 5.81273438 8.41695312 6 9 C5.01 9.33 4.02 9.66 3 10 C2.01 6.7 1.02 3.4 0 0 Z " fill="#030AC2" transform="translate(72,78)"/>
<path d="M0 0 C1.98 0 3.96 0 6 0 C1.375 4.875 1.375 4.875 -2 6 C-1.34 4.02 -0.68 2.04 0 0 Z " fill="#0511A5" transform="translate(51,82)"/>
<path d="M0 0 C1.65 0.33 3.3 0.66 5 1 C4.67 1.66 4.34 2.32 4 3 C3.01 2.67 2.02 2.34 1 2 C1.33 3.32 1.66 4.64 2 6 C0.68 5.34 -0.64 4.68 -2 4 C-1.34 2.68 -0.68 1.36 0 0 Z " fill="#171892" transform="translate(59,85)"/>
<path d="M0 0 C1.65 0 3.3 0 5 0 C4.67 1.32 4.34 2.64 4 4 C2.68 4 1.36 4 0 4 C0 2.68 0 1.36 0 0 Z " fill="#050CE7" transform="translate(91,50)"/>
<path d="M0 0 C0.33 0.66 0.66 1.32 1 2 C3.52733235 2.65555119 3.52733235 2.65555119 6 3 C4.68 3.99 3.36 4.98 2 6 C0.68 4.68 -0.64 3.36 -2 2 C-1.34 1.34 -0.68 0.68 0 0 Z " fill="#0B1488" transform="translate(22,101)"/>
<path d="M0 0 C0.99 0.33 1.98 0.66 3 1 C2.67 2.32 2.34 3.64 2 5 C0.68 4.67 -0.64 4.34 -2 4 C-2 3.01 -2 2.02 -2 1 C-1.34 0.67 -0.68 0.34 0 0 Z " fill="#060AD5" transform="translate(73,93)"/>
<path d="M0 0 C1.73662334 3.22515763 2.8905928 6.51329166 4 10 C3.01 10.495 3.01 10.495 2 11 C-0.32590854 7.36576791 -0.16265833 4.22911669 0 0 Z " fill="#0B128F" transform="translate(61,27)"/>
<path d="M0 0 C0.66 0.33 1.32 0.66 2 1 C2.625 4.0625 2.625 4.0625 3 7 C1.68 6.67 0.36 6.34 -1 6 C-0.67 4.02 -0.34 2.04 0 0 Z " fill="#0C0FA9" transform="translate(49,21)"/>
<path d="M0 0 C0.66 0.66 1.32 1.32 2 2 C1.34 2 0.68 2 0 2 C0 1.34 0 0.68 0 0 Z " fill="#000000" transform="translate(53,29)"/>
<path d="M0 0 C2 1 2 1 2 1 Z " fill="#151555" transform="translate(74,71)"/>
<path d="" fill="#000000" transform="translate(0,0)"/>
<path d="" fill="#333366" transform="translate(0,0)"/>
<path d="" fill="#000000" transform="translate(0,0)"/>
<path d="" fill="#000000" transform="translate(0,0)"/>
<path d="" fill="#24246D" transform="translate(0,0)"/>
<path d="" fill="#003F7F" transform="translate(0,0)"/>
<path d="" fill="#000000" transform="translate(0,0)"/>
<path d="" fill="#000000" transform="translate(0,0)"/>
<path d="" fill="#000000" transform="translate(0,0)"/>
<path d="" fill="#00007F" transform="translate(0,0)"/>
<path d="" fill="#000000" transform="translate(0,0)"/>
</svg>
