<svg xmlns="http://www.w3.org/2000/svg" viewBox="0 0 320 80">
  <defs>
    <linearGradient id="gradLang" x1="0" y1="0" x2="0" y2="1">
      <stop offset="0%" stop-color="#0ea5e9"/> <!-- Sky-500 -->
      <stop offset="100%" stop-color="#0284c7"/> <!-- Sky-600 -->
    </linearGradient>
  </defs>

  <!-- Left Illustration Section (Icon) -->
  <g transform="translate(10, 5)">
     <!-- Background Circle -->
    <circle cx="35" cy="35" r="32" fill="#f0f9ff"/>

    <!-- Detailed Globe -->
    <circle cx="35" cy="35" r="24" fill="#e0f2fe" stroke="#0284c7" stroke-width="1.5"/>
    <path d="M35 11 C 35 11 15 25 15 35 C 15 45 35 59 35 59" fill="none" stroke="#0284c7" stroke-width="1" opacity="0.6"/>
    <path d="M35 11 C 35 11 55 25 55 35 C 55 45 35 59 35 59" fill="none" stroke="#0284c7" stroke-width="1" opacity="0.6"/>
    <line x1="11" y1="35" x2="59" y2="35" stroke="#0284c7" stroke-width="1" opacity="0.6"/>
    <line x1="15" y1="23" x2="55" y2="23" stroke="#0284c7" stroke-width="1" opacity="0.6"/>
    <line x1="15" y1="47" x2="55" y2="47" stroke="#0284c7" stroke-width="1" opacity="0.6"/>

    <!-- Greeting Bubbles (Clean) -->
    <rect x="50" y="20" width="18" height="14" rx="4" fill="#fff" stroke="#0284c7" stroke-width="1.5"/>
    <text x="59" y="30" font-family="sans-serif" font-weight="bold" font-size="8" fill="#0284c7" text-anchor="middle">Hi</text>

    <rect x="5" y="40" width="18" height="14" rx="4" fill="#fff" stroke="#0284c7" stroke-width="1.5"/>
    <text x="14" y="50" font-family="sans-serif" font-weight="bold" font-size="8" fill="#0284c7" text-anchor="middle">文</text>
  </g>

  <!-- Right Text Section -->
  <g transform="translate(85, 0)">
    <text x="0" y="30" font-family="'Inter', sans-serif" font-weight="900" font-size="22" fill="#0c4a6e" letter-spacing="-0.5">FOREIGN</text>
    <text x="0" y="55" font-family="'Inter', sans-serif" font-weight="700" font-size="22" fill="#0ea5e9" letter-spacing="-0.5">LANGUAGES</text>
  </g>
</svg>
